<svg xmlns="http://www.w3.org/2000/svg" viewBox="0 0 64 64" fill="none">
  <defs>
    <linearGradient id="b" x1="8" y1="8" x2="56" y2="56" gradientUnits="userSpaceOnUse">
      <stop stop-color="#4a9bd9"/>
      <stop offset="1" stop-color="#1f4483"/>
    </linearGradient>
  </defs>
  <!-- Book -->
  <path d="M12 18c0-4 3-7 7-7h26c4 0 7 3 7 7v24c0 2-1 4-3 5l-17 10-17-10c-2-1-3-3-3-5V18z" fill="url(#b)"/>
  <!-- Book pages curve -->
  <path d="M14 44c4 2 10 3 18 3s14-1 18-3" stroke="#fff" stroke-width="2.5" stroke-linecap="round" fill="none" opacity="0.7"/>
  <path d="M14 40c4 2 10 3 18 3s14-1 18-3" stroke="#fff" stroke-width="1.5" stroke-linecap="round" fill="none" opacity="0.4"/>
  <!-- Speech bubble -->
  <rect x="20" y="14" width="24" height="18" rx="9" fill="#fff"/>
  <path d="M28 32l-4 6 8-3" fill="#fff"/>
  <!-- Dots inside bubble -->
  <circle cx="27" cy="23" r="2" fill="url(#b)"/>
  <circle cx="32" cy="23" r="2" fill="url(#b)"/>
  <circle cx="37" cy="23" r="2" fill="url(#b)"/>
</svg>
